<svg width="200" height="200" viewBox="0 0 200 200" fill="none" xmlns="http://www.w3.org/2000/svg">
<rect width="200" height="200" rx="100" fill="#8E47FF"/>
<path d="M89.768 134.04C89.1707 134.04 88.7013 133.869 88.36 133.528C88.104 133.272 87.72 133.315 87.208 133.656C86.952 133.571 86.6107 133.443 86.184 133.272C85.8427 133.187 85.544 133.059 85.288 132.888L82.984 131.224C82.3867 130.797 81.7467 130.371 81.064 129.944C80.4667 129.603 79.9547 129.261 79.528 128.92L79.144 128.408C77.352 128.493 75.4747 128.152 73.512 127.384C71.6347 126.701 69.7147 125.507 67.752 123.8C67.24 123.715 66.8133 123.416 66.472 122.904C66.1307 122.307 65.7893 121.837 65.448 121.496C64.8507 121.411 64.4667 121.197 64.296 120.856C64.2107 120.515 64.0827 120.088 63.912 119.576C63.8267 119.576 63.7413 119.533 63.656 119.448C63.656 119.363 63.656 119.32 63.656 119.32L63.016 118.808V118.68C62.6747 117.997 62.4613 117.528 62.376 117.272C62.2907 117.016 61.9493 116.632 61.352 116.12C61.1813 115.949 61.0533 115.693 60.968 115.352C60.8827 114.925 60.7547 114.627 60.584 114.456C59.56 112.237 58.664 110.019 57.896 107.8C57.128 105.581 56.744 103.277 56.744 100.888C56.744 100.12 56.9573 99.5653 57.384 99.224C57.8107 98.7973 58.28 98.584 58.792 98.584C59.9013 98.584 60.6267 99.1387 60.968 100.248C61.1387 100.504 61.3093 100.845 61.48 101.272C61.6507 101.613 61.7787 101.955 61.864 102.296L61.992 103.448C62.0773 104.131 62.4187 105.197 63.016 106.648C63.6987 108.099 64.4667 109.549 65.32 111C66.2587 112.451 67.1547 113.56 68.008 114.328L69.928 117.144C70.3547 118.168 70.952 119.149 71.72 120.088C72.488 120.941 73.1707 121.581 73.768 122.008L77.992 125.848L79.144 126.872C81.3627 126.872 83.496 125.848 85.544 123.8C87.5067 122.008 89.2133 119.789 90.664 117.144C92.1147 114.499 93.3947 111.725 94.504 108.824C95.6987 105.923 96.7653 103.192 97.704 100.632L98.216 99.992C98.472 99.48 98.6427 98.84 98.728 98.072C98.8133 97.304 98.8987 96.6213 98.984 96.024C99.4107 95.512 99.7947 94.9147 100.136 94.232C100.477 93.5493 100.605 92.8667 100.52 92.184L100.648 91.672C100.904 91.5867 100.904 91.4587 100.648 91.288C100.392 91.1173 100.52 90.9893 101.032 90.904C101.544 90.0507 101.843 89.1547 101.928 88.216C102.013 87.2773 102.184 86.5947 102.44 86.168C102.696 85.8267 102.909 85.4853 103.08 85.144C103.336 84.8027 103.379 84.376 103.208 83.864C103.293 83.5227 103.549 82.7547 103.976 81.56C104.403 80.3653 104.872 79.0853 105.384 77.72C105.981 76.2693 106.451 75.032 106.792 74.008C107.219 72.8987 107.432 72.3013 107.432 72.216C107.517 71.8747 107.517 71.5333 107.432 71.192C107.432 70.7653 107.475 70.3387 107.56 69.912L107.944 68.504C106.067 68.5893 104.147 68.8027 102.184 69.144C100.221 69.4 98.344 69.6987 96.552 70.04C95.6133 70.2107 95.144 70.2533 95.144 70.168C95.2293 69.9973 95.3573 69.8267 95.528 69.656C95.784 69.4 95.6987 69.272 95.272 69.272H94.888C94.2907 69.272 93.736 69.4 93.224 69.656C92.7973 69.8267 92.584 69.9973 92.584 70.168C92.4987 70.5093 91.8587 70.808 90.664 71.064C89.5547 71.32 88.9147 71.448 88.744 71.448C87.6347 71.6187 86.6107 71.7893 85.672 71.96C84.7333 72.1307 83.88 72.2587 83.112 72.344C82.856 72.4293 82.6 72.2587 82.344 71.832C82.1733 71.4053 82.088 70.936 82.088 70.424C82.088 69.912 82.1733 69.4427 82.344 69.016C82.6 68.504 82.8133 68.1627 82.984 67.992C82.984 67.9067 83.0693 67.864 83.24 67.864H83.368L86.696 67.48C87.3787 67.3093 88.2747 67.224 89.384 67.224C90.5787 67.224 91.6027 67.0533 92.456 66.712L97.576 66.456C98.6 66.3707 99.7947 66.328 101.16 66.328C102.525 66.2427 103.677 66.2 104.616 66.2C105.043 66.2 105.213 66.2427 105.128 66.328C105.043 66.4133 105.171 66.456 105.512 66.456C106.024 66.456 106.365 66.4133 106.536 66.328C106.707 66.2427 107.091 66.2 107.688 66.2H108.84L109.096 65.816C109.523 65.1333 109.992 64.6213 110.504 64.28C111.016 63.9387 111.741 63.8107 112.68 63.896C113.619 63.896 114.301 64.28 114.728 65.048C114.813 65.1333 114.813 65.2613 114.728 65.432C114.728 65.5173 114.771 65.6027 114.856 65.688C114.856 65.7733 114.941 66.072 115.112 66.584C115.283 66.584 115.453 66.6267 115.624 66.712C115.88 66.712 116.051 66.712 116.136 66.712C116.307 66.7973 116.349 66.8827 116.264 66.968C116.179 67.0533 116.179 67.1387 116.264 67.224C116.52 67.3093 116.691 67.3093 116.776 67.224C116.947 67.0533 117.16 66.968 117.416 66.968C117.928 66.968 118.269 67.0533 118.44 67.224L119.976 67.608C120.573 67.864 120.872 68.248 120.872 68.76C120.872 69.1867 120.573 69.3147 119.976 69.144L118.952 68.76L117.672 68.632C117.331 68.5467 116.904 68.504 116.392 68.504C115.88 68.4187 115.368 68.376 114.856 68.376L114.216 70.296C113.789 71.576 113.448 72.9413 113.192 74.392C113.021 75.8427 112.168 76.952 110.632 77.72C110.547 78.0613 110.248 78.8293 109.736 80.024C109.309 81.1333 108.883 82.2427 108.456 83.352C108.029 84.376 107.731 84.9733 107.56 85.144C107.304 85.4853 107.048 85.8267 106.792 86.168C106.621 86.424 106.493 86.7653 106.408 87.192C106.323 88.0453 106.024 89.1973 105.512 90.648C105 92.0133 104.445 93.4213 103.848 94.872C103.251 96.3227 102.739 97.4747 102.312 98.328C101.885 98.6693 101.501 98.9253 101.16 99.096C100.904 99.2667 101.032 99.6507 101.544 100.248C101.288 100.845 101.032 101.144 100.776 101.144C100.52 101.059 100.179 100.973 99.752 100.888C99.9227 101.229 100.051 101.485 100.136 101.656C100.307 101.741 100.435 101.997 100.52 102.424C99.9227 103.875 99.1973 105.624 98.344 107.672C97.576 109.72 96.7227 111.341 95.784 112.536C95.1867 112.792 94.7173 113.048 94.376 113.304C94.12 113.56 94.1627 114.072 94.504 114.84C94.1627 115.352 93.992 115.779 93.992 116.12L93.096 117.528C92.7547 117.784 92.4133 118.083 92.072 118.424C91.816 118.68 91.688 119.064 91.688 119.576L90.92 120.728C90.4933 120.899 90.1093 121.112 89.768 121.368C89.4267 121.624 89.256 122.051 89.256 122.648C86.696 125.549 83.88 127.384 80.808 128.152L81.832 128.92C82.0027 128.92 82.344 129.091 82.856 129.432C83.4533 129.773 83.7947 130.029 83.88 130.2C84.904 130.968 85.7147 131.48 86.312 131.736C86.9947 131.992 87.6347 132.12 88.232 132.12C88.9147 132.12 89.896 131.992 91.176 131.736H91.816C92.4133 131.736 92.712 131.864 92.712 132.12C92.7973 132.376 92.6693 132.675 92.328 133.016C92.2427 133.101 92.072 133.229 91.816 133.4C91.6453 133.656 91.5173 133.784 91.432 133.784C91.176 133.784 90.92 133.827 90.664 133.912C90.408 133.997 90.1093 134.04 89.768 134.04ZM76.072 126.232L75.688 125.976C75.432 125.464 74.92 124.995 74.152 124.568C73.4693 124.141 72.8293 123.629 72.232 123.032C71.6347 122.435 71.08 121.837 70.568 121.24C70.1413 120.557 69.7147 120.003 69.288 119.576C69.1173 119.32 68.776 118.893 68.264 118.296C67.8373 117.613 67.368 116.973 66.856 116.376C66.5147 116.035 66.3013 115.651 66.216 115.224C66.216 114.797 66.1307 114.541 65.96 114.456C65.6187 114.029 65.2773 113.645 64.936 113.304C64.5947 112.877 64.2533 112.365 63.912 111.768C63.5707 111.085 63.1867 110.317 62.76 109.464C62.3333 108.611 61.7787 107.8 61.096 107.032L58.792 104.216C59.9867 108.739 61.7787 112.749 64.168 116.248C66.5573 119.747 69.0747 122.349 71.72 124.056C72.488 124.568 73.2133 125.037 73.896 125.464C74.664 125.805 75.3893 126.061 76.072 126.232Z" fill="black"/>
<path d="M93.768 135.04C93.1707 135.04 92.7013 134.869 92.36 134.528C92.104 134.272 91.72 134.315 91.208 134.656C90.952 134.571 90.6107 134.443 90.184 134.272C89.8427 134.187 89.544 134.059 89.288 133.888L86.984 132.224C86.3867 131.797 85.7467 131.371 85.064 130.944C84.4667 130.603 83.9547 130.261 83.528 129.92L83.144 129.408C81.352 129.493 79.4747 129.152 77.512 128.384C75.6347 127.701 73.7147 126.507 71.752 124.8C71.24 124.715 70.8133 124.416 70.472 123.904C70.1307 123.307 69.7893 122.837 69.448 122.496C68.8507 122.411 68.4667 122.197 68.296 121.856C68.2107 121.515 68.0827 121.088 67.912 120.576C67.8267 120.576 67.7413 120.533 67.656 120.448C67.656 120.363 67.656 120.32 67.656 120.32L67.016 119.808V119.68C66.6747 118.997 66.4613 118.528 66.376 118.272C66.2907 118.016 65.9493 117.632 65.352 117.12C65.1813 116.949 65.0533 116.693 64.968 116.352C64.8827 115.925 64.7547 115.627 64.584 115.456C63.56 113.237 62.664 111.019 61.896 108.8C61.128 106.581 60.744 104.277 60.744 101.888C60.744 101.12 60.9573 100.565 61.384 100.224C61.8107 99.7973 62.28 99.584 62.792 99.584C63.9013 99.584 64.6267 100.139 64.968 101.248C65.1387 101.504 65.3093 101.845 65.48 102.272C65.6507 102.613 65.7787 102.955 65.864 103.296L65.992 104.448C66.0773 105.131 66.4187 106.197 67.016 107.648C67.6987 109.099 68.4667 110.549 69.32 112C70.2587 113.451 71.1547 114.56 72.008 115.328L73.928 118.144C74.3547 119.168 74.952 120.149 75.72 121.088C76.488 121.941 77.1707 122.581 77.768 123.008L81.992 126.848L83.144 127.872C85.3627 127.872 87.496 126.848 89.544 124.8C91.5067 123.008 93.2133 120.789 94.664 118.144C96.1147 115.499 97.3947 112.725 98.504 109.824C99.6987 106.923 100.765 104.192 101.704 101.632L102.216 100.992C102.472 100.48 102.643 99.84 102.728 99.072C102.813 98.304 102.899 97.6213 102.984 97.024C103.411 96.512 103.795 95.9147 104.136 95.232C104.477 94.5493 104.605 93.8667 104.52 93.184L104.648 92.672C104.904 92.5867 104.904 92.4587 104.648 92.288C104.392 92.1173 104.52 91.9893 105.032 91.904C105.544 91.0507 105.843 90.1547 105.928 89.216C106.013 88.2773 106.184 87.5947 106.44 87.168C106.696 86.8267 106.909 86.4853 107.08 86.144C107.336 85.8027 107.379 85.376 107.208 84.864C107.293 84.5227 107.549 83.7547 107.976 82.56C108.403 81.3653 108.872 80.0853 109.384 78.72C109.981 77.2693 110.451 76.032 110.792 75.008C111.219 73.8987 111.432 73.3013 111.432 73.216C111.517 72.8747 111.517 72.5333 111.432 72.192C111.432 71.7653 111.475 71.3387 111.56 70.912L111.944 69.504C110.067 69.5893 108.147 69.8027 106.184 70.144C104.221 70.4 102.344 70.6987 100.552 71.04C99.6133 71.2107 99.144 71.2533 99.144 71.168C99.2293 70.9973 99.3573 70.8267 99.528 70.656C99.784 70.4 99.6987 70.272 99.272 70.272H98.888C98.2907 70.272 97.736 70.4 97.224 70.656C96.7973 70.8267 96.584 70.9973 96.584 71.168C96.4987 71.5093 95.8587 71.808 94.664 72.064C93.5547 72.32 92.9147 72.448 92.744 72.448C91.6347 72.6187 90.6107 72.7893 89.672 72.96C88.7333 73.1307 87.88 73.2587 87.112 73.344C86.856 73.4293 86.6 73.2587 86.344 72.832C86.1733 72.4053 86.088 71.936 86.088 71.424C86.088 70.912 86.1733 70.4427 86.344 70.016C86.6 69.504 86.8133 69.1627 86.984 68.992C86.984 68.9067 87.0693 68.864 87.24 68.864H87.368L90.696 68.48C91.3787 68.3093 92.2747 68.224 93.384 68.224C94.5787 68.224 95.6027 68.0533 96.456 67.712L101.576 67.456C102.6 67.3707 103.795 67.328 105.16 67.328C106.525 67.2427 107.677 67.2 108.616 67.2C109.043 67.2 109.213 67.2427 109.128 67.328C109.043 67.4133 109.171 67.456 109.512 67.456C110.024 67.456 110.365 67.4133 110.536 67.328C110.707 67.2427 111.091 67.2 111.688 67.2H112.84L113.096 66.816C113.523 66.1333 113.992 65.6213 114.504 65.28C115.016 64.9387 115.741 64.8107 116.68 64.896C117.619 64.896 118.301 65.28 118.728 66.048C118.813 66.1333 118.813 66.2613 118.728 66.432C118.728 66.5173 118.771 66.6027 118.856 66.688C118.856 66.7733 118.941 67.072 119.112 67.584C119.283 67.584 119.453 67.6267 119.624 67.712C119.88 67.712 120.051 67.712 120.136 67.712C120.307 67.7973 120.349 67.8827 120.264 67.968C120.179 68.0533 120.179 68.1387 120.264 68.224C120.52 68.3093 120.691 68.3093 120.776 68.224C120.947 68.0533 121.16 67.968 121.416 67.968C121.928 67.968 122.269 68.0533 122.44 68.224L123.976 68.608C124.573 68.864 124.872 69.248 124.872 69.76C124.872 70.1867 124.573 70.3147 123.976 70.144L122.952 69.76L121.672 69.632C121.331 69.5467 120.904 69.504 120.392 69.504C119.88 69.4187 119.368 69.376 118.856 69.376L118.216 71.296C117.789 72.576 117.448 73.9413 117.192 75.392C117.021 76.8427 116.168 77.952 114.632 78.72C114.547 79.0613 114.248 79.8293 113.736 81.024C113.309 82.1333 112.883 83.2427 112.456 84.352C112.029 85.376 111.731 85.9733 111.56 86.144C111.304 86.4853 111.048 86.8267 110.792 87.168C110.621 87.424 110.493 87.7653 110.408 88.192C110.323 89.0453 110.024 90.1973 109.512 91.648C109 93.0133 108.445 94.4213 107.848 95.872C107.251 97.3227 106.739 98.4747 106.312 99.328C105.885 99.6693 105.501 99.9253 105.16 100.096C104.904 100.267 105.032 100.651 105.544 101.248C105.288 101.845 105.032 102.144 104.776 102.144C104.52 102.059 104.179 101.973 103.752 101.888C103.923 102.229 104.051 102.485 104.136 102.656C104.307 102.741 104.435 102.997 104.52 103.424C103.923 104.875 103.197 106.624 102.344 108.672C101.576 110.72 100.723 112.341 99.784 113.536C99.1867 113.792 98.7173 114.048 98.376 114.304C98.12 114.56 98.1627 115.072 98.504 115.84C98.1627 116.352 97.992 116.779 97.992 117.12L97.096 118.528C96.7547 118.784 96.4133 119.083 96.072 119.424C95.816 119.68 95.688 120.064 95.688 120.576L94.92 121.728C94.4933 121.899 94.1093 122.112 93.768 122.368C93.4267 122.624 93.256 123.051 93.256 123.648C90.696 126.549 87.88 128.384 84.808 129.152L85.832 129.92C86.0027 129.92 86.344 130.091 86.856 130.432C87.4533 130.773 87.7947 131.029 87.88 131.2C88.904 131.968 89.7147 132.48 90.312 132.736C90.9947 132.992 91.6347 133.12 92.232 133.12C92.9147 133.12 93.896 132.992 95.176 132.736H95.816C96.4133 132.736 96.712 132.864 96.712 133.12C96.7973 133.376 96.6693 133.675 96.328 134.016C96.2427 134.101 96.072 134.229 95.816 134.4C95.6453 134.656 95.5173 134.784 95.432 134.784C95.176 134.784 94.92 134.827 94.664 134.912C94.408 134.997 94.1093 135.04 93.768 135.04ZM80.072 127.232L79.688 126.976C79.432 126.464 78.92 125.995 78.152 125.568C77.4693 125.141 76.8293 124.629 76.232 124.032C75.6347 123.435 75.08 122.837 74.568 122.24C74.1413 121.557 73.7147 121.003 73.288 120.576C73.1173 120.32 72.776 119.893 72.264 119.296C71.8373 118.613 71.368 117.973 70.856 117.376C70.5147 117.035 70.3013 116.651 70.216 116.224C70.216 115.797 70.1307 115.541 69.96 115.456C69.6187 115.029 69.2773 114.645 68.936 114.304C68.5947 113.877 68.2533 113.365 67.912 112.768C67.5707 112.085 67.1867 111.317 66.76 110.464C66.3333 109.611 65.7787 108.8 65.096 108.032L62.792 105.216C63.9867 109.739 65.7787 113.749 68.168 117.248C70.5573 120.747 73.0747 123.349 75.72 125.056C76.488 125.568 77.2133 126.037 77.896 126.464C78.664 126.805 79.3893 127.061 80.072 127.232Z" fill="black"/>
<path d="M97.768 138.04C97.1707 138.04 96.7013 137.869 96.36 137.528C96.104 137.272 95.72 137.315 95.208 137.656C94.952 137.571 94.6107 137.443 94.184 137.272C93.8427 137.187 93.544 137.059 93.288 136.888L90.984 135.224C90.3867 134.797 89.7467 134.371 89.064 133.944C88.4667 133.603 87.9547 133.261 87.528 132.92L87.144 132.408C85.352 132.493 83.4747 132.152 81.512 131.384C79.6347 130.701 77.7147 129.507 75.752 127.8C75.24 127.715 74.8133 127.416 74.472 126.904C74.1307 126.307 73.7893 125.837 73.448 125.496C72.8507 125.411 72.4667 125.197 72.296 124.856C72.2107 124.515 72.0827 124.088 71.912 123.576C71.8267 123.576 71.7413 123.533 71.656 123.448C71.656 123.363 71.656 123.32 71.656 123.32L71.016 122.808V122.68C70.6747 121.997 70.4613 121.528 70.376 121.272C70.2907 121.016 69.9493 120.632 69.352 120.12C69.1813 119.949 69.0533 119.693 68.968 119.352C68.8827 118.925 68.7547 118.627 68.584 118.456C67.56 116.237 66.664 114.019 65.896 111.8C65.128 109.581 64.744 107.277 64.744 104.888C64.744 104.12 64.9573 103.565 65.384 103.224C65.8107 102.797 66.28 102.584 66.792 102.584C67.9013 102.584 68.6267 103.139 68.968 104.248C69.1387 104.504 69.3093 104.845 69.48 105.272C69.6507 105.613 69.7787 105.955 69.864 106.296L69.992 107.448C70.0773 108.131 70.4187 109.197 71.016 110.648C71.6987 112.099 72.4667 113.549 73.32 115C74.2587 116.451 75.1547 117.56 76.008 118.328L77.928 121.144C78.3547 122.168 78.952 123.149 79.72 124.088C80.488 124.941 81.1707 125.581 81.768 126.008L85.992 129.848L87.144 130.872C89.3627 130.872 91.496 129.848 93.544 127.8C95.5067 126.008 97.2133 123.789 98.664 121.144C100.115 118.499 101.395 115.725 102.504 112.824C103.699 109.923 104.765 107.192 105.704 104.632L106.216 103.992C106.472 103.48 106.643 102.84 106.728 102.072C106.813 101.304 106.899 100.621 106.984 100.024C107.411 99.512 107.795 98.9147 108.136 98.232C108.477 97.5493 108.605 96.8667 108.52 96.184L108.648 95.672C108.904 95.5867 108.904 95.4587 108.648 95.288C108.392 95.1173 108.52 94.9893 109.032 94.904C109.544 94.0507 109.843 93.1547 109.928 92.216C110.013 91.2773 110.184 90.5947 110.44 90.168C110.696 89.8267 110.909 89.4853 111.08 89.144C111.336 88.8027 111.379 88.376 111.208 87.864C111.293 87.5227 111.549 86.7547 111.976 85.56C112.403 84.3653 112.872 83.0853 113.384 81.72C113.981 80.2693 114.451 79.032 114.792 78.008C115.219 76.8987 115.432 76.3013 115.432 76.216C115.517 75.8747 115.517 75.5333 115.432 75.192C115.432 74.7653 115.475 74.3387 115.56 73.912L115.944 72.504C114.067 72.5893 112.147 72.8027 110.184 73.144C108.221 73.4 106.344 73.6987 104.552 74.04C103.613 74.2107 103.144 74.2533 103.144 74.168C103.229 73.9973 103.357 73.8267 103.528 73.656C103.784 73.4 103.699 73.272 103.272 73.272H102.888C102.291 73.272 101.736 73.4 101.224 73.656C100.797 73.8267 100.584 73.9973 100.584 74.168C100.499 74.5093 99.8587 74.808 98.664 75.064C97.5547 75.32 96.9147 75.448 96.744 75.448C95.6347 75.6187 94.6107 75.7893 93.672 75.96C92.7333 76.1307 91.88 76.2587 91.112 76.344C90.856 76.4293 90.6 76.2587 90.344 75.832C90.1733 75.4053 90.088 74.936 90.088 74.424C90.088 73.912 90.1733 73.4427 90.344 73.016C90.6 72.504 90.8133 72.1627 90.984 71.992C90.984 71.9067 91.0693 71.864 91.24 71.864H91.368L94.696 71.48C95.3787 71.3093 96.2747 71.224 97.384 71.224C98.5787 71.224 99.6027 71.0533 100.456 70.712L105.576 70.456C106.6 70.3707 107.795 70.328 109.16 70.328C110.525 70.2427 111.677 70.2 112.616 70.2C113.043 70.2 113.213 70.2427 113.128 70.328C113.043 70.4133 113.171 70.456 113.512 70.456C114.024 70.456 114.365 70.4133 114.536 70.328C114.707 70.2427 115.091 70.2 115.688 70.2H116.84L117.096 69.816C117.523 69.1333 117.992 68.6213 118.504 68.28C119.016 67.9387 119.741 67.8107 120.68 67.896C121.619 67.896 122.301 68.28 122.728 69.048C122.813 69.1333 122.813 69.2613 122.728 69.432C122.728 69.5173 122.771 69.6027 122.856 69.688C122.856 69.7733 122.941 70.072 123.112 70.584C123.283 70.584 123.453 70.6267 123.624 70.712C123.88 70.712 124.051 70.712 124.136 70.712C124.307 70.7973 124.349 70.8827 124.264 70.968C124.179 71.0533 124.179 71.1387 124.264 71.224C124.52 71.3093 124.691 71.3093 124.776 71.224C124.947 71.0533 125.16 70.968 125.416 70.968C125.928 70.968 126.269 71.0533 126.44 71.224L127.976 71.608C128.573 71.864 128.872 72.248 128.872 72.76C128.872 73.1867 128.573 73.3147 127.976 73.144L126.952 72.76L125.672 72.632C125.331 72.5467 124.904 72.504 124.392 72.504C123.88 72.4187 123.368 72.376 122.856 72.376L122.216 74.296C121.789 75.576 121.448 76.9413 121.192 78.392C121.021 79.8427 120.168 80.952 118.632 81.72C118.547 82.0613 118.248 82.8293 117.736 84.024C117.309 85.1333 116.883 86.2427 116.456 87.352C116.029 88.376 115.731 88.9733 115.56 89.144C115.304 89.4853 115.048 89.8267 114.792 90.168C114.621 90.424 114.493 90.7653 114.408 91.192C114.323 92.0453 114.024 93.1973 113.512 94.648C113 96.0133 112.445 97.4213 111.848 98.872C111.251 100.323 110.739 101.475 110.312 102.328C109.885 102.669 109.501 102.925 109.16 103.096C108.904 103.267 109.032 103.651 109.544 104.248C109.288 104.845 109.032 105.144 108.776 105.144C108.52 105.059 108.179 104.973 107.752 104.888C107.923 105.229 108.051 105.485 108.136 105.656C108.307 105.741 108.435 105.997 108.52 106.424C107.923 107.875 107.197 109.624 106.344 111.672C105.576 113.72 104.723 115.341 103.784 116.536C103.187 116.792 102.717 117.048 102.376 117.304C102.12 117.56 102.163 118.072 102.504 118.84C102.163 119.352 101.992 119.779 101.992 120.12L101.096 121.528C100.755 121.784 100.413 122.083 100.072 122.424C99.816 122.68 99.688 123.064 99.688 123.576L98.92 124.728C98.4933 124.899 98.1093 125.112 97.768 125.368C97.4267 125.624 97.256 126.051 97.256 126.648C94.696 129.549 91.88 131.384 88.808 132.152L89.832 132.92C90.0027 132.92 90.344 133.091 90.856 133.432C91.4533 133.773 91.7947 134.029 91.88 134.2C92.904 134.968 93.7147 135.48 94.312 135.736C94.9947 135.992 95.6347 136.12 96.232 136.12C96.9147 136.12 97.896 135.992 99.176 135.736H99.816C100.413 135.736 100.712 135.864 100.712 136.12C100.797 136.376 100.669 136.675 100.328 137.016C100.243 137.101 100.072 137.229 99.816 137.4C99.6453 137.656 99.5173 137.784 99.432 137.784C99.176 137.784 98.92 137.827 98.664 137.912C98.408 137.997 98.1093 138.04 97.768 138.04ZM84.072 130.232L83.688 129.976C83.432 129.464 82.92 128.995 82.152 128.568C81.4693 128.141 80.8293 127.629 80.232 127.032C79.6347 126.435 79.08 125.837 78.568 125.24C78.1413 124.557 77.7147 124.003 77.288 123.576C77.1173 123.32 76.776 122.893 76.264 122.296C75.8373 121.613 75.368 120.973 74.856 120.376C74.5147 120.035 74.3013 119.651 74.216 119.224C74.216 118.797 74.1307 118.541 73.96 118.456C73.6187 118.029 73.2773 117.645 72.936 117.304C72.5947 116.877 72.2533 116.365 71.912 115.768C71.5707 115.085 71.1867 114.317 70.76 113.464C70.3333 112.611 69.7787 111.8 69.096 111.032L66.792 108.216C67.9867 112.739 69.7787 116.749 72.168 120.248C74.5573 123.747 77.0747 126.349 79.72 128.056C80.488 128.568 81.2133 129.037 81.896 129.464C82.664 129.805 83.3893 130.061 84.072 130.232Z" fill="black"/>
<path d="M101.768 141.04C101.171 141.04 100.701 140.869 100.36 140.528C100.104 140.272 99.72 140.315 99.208 140.656C98.952 140.571 98.6107 140.443 98.184 140.272C97.8427 140.187 97.544 140.059 97.288 139.888L94.984 138.224C94.3867 137.797 93.7467 137.371 93.064 136.944C92.4667 136.603 91.9547 136.261 91.528 135.92L91.144 135.408C89.352 135.493 87.4747 135.152 85.512 134.384C83.6347 133.701 81.7147 132.507 79.752 130.8C79.24 130.715 78.8133 130.416 78.472 129.904C78.1307 129.307 77.7893 128.837 77.448 128.496C76.8507 128.411 76.4667 128.197 76.296 127.856C76.2107 127.515 76.0827 127.088 75.912 126.576C75.8267 126.576 75.7413 126.533 75.656 126.448C75.656 126.363 75.656 126.32 75.656 126.32L75.016 125.808V125.68C74.6747 124.997 74.4613 124.528 74.376 124.272C74.2907 124.016 73.9493 123.632 73.352 123.12C73.1813 122.949 73.0533 122.693 72.968 122.352C72.8827 121.925 72.7547 121.627 72.584 121.456C71.56 119.237 70.664 117.019 69.896 114.8C69.128 112.581 68.744 110.277 68.744 107.888C68.744 107.12 68.9573 106.565 69.384 106.224C69.8107 105.797 70.28 105.584 70.792 105.584C71.9013 105.584 72.6267 106.139 72.968 107.248C73.1387 107.504 73.3093 107.845 73.48 108.272C73.6507 108.613 73.7787 108.955 73.864 109.296L73.992 110.448C74.0773 111.131 74.4187 112.197 75.016 113.648C75.6987 115.099 76.4667 116.549 77.32 118C78.2587 119.451 79.1547 120.56 80.008 121.328L81.928 124.144C82.3547 125.168 82.952 126.149 83.72 127.088C84.488 127.941 85.1707 128.581 85.768 129.008L89.992 132.848L91.144 133.872C93.3627 133.872 95.496 132.848 97.544 130.8C99.5067 129.008 101.213 126.789 102.664 124.144C104.115 121.499 105.395 118.725 106.504 115.824C107.699 112.923 108.765 110.192 109.704 107.632L110.216 106.992C110.472 106.48 110.643 105.84 110.728 105.072C110.813 104.304 110.899 103.621 110.984 103.024C111.411 102.512 111.795 101.915 112.136 101.232C112.477 100.549 112.605 99.8667 112.52 99.184L112.648 98.672C112.904 98.5867 112.904 98.4587 112.648 98.288C112.392 98.1173 112.52 97.9893 113.032 97.904C113.544 97.0507 113.843 96.1547 113.928 95.216C114.013 94.2773 114.184 93.5947 114.44 93.168C114.696 92.8267 114.909 92.4853 115.08 92.144C115.336 91.8027 115.379 91.376 115.208 90.864C115.293 90.5227 115.549 89.7547 115.976 88.56C116.403 87.3653 116.872 86.0853 117.384 84.72C117.981 83.2693 118.451 82.032 118.792 81.008C119.219 79.8987 119.432 79.3013 119.432 79.216C119.517 78.8747 119.517 78.5333 119.432 78.192C119.432 77.7653 119.475 77.3387 119.56 76.912L119.944 75.504C118.067 75.5893 116.147 75.8027 114.184 76.144C112.221 76.4 110.344 76.6987 108.552 77.04C107.613 77.2107 107.144 77.2533 107.144 77.168C107.229 76.9973 107.357 76.8267 107.528 76.656C107.784 76.4 107.699 76.272 107.272 76.272H106.888C106.291 76.272 105.736 76.4 105.224 76.656C104.797 76.8267 104.584 76.9973 104.584 77.168C104.499 77.5093 103.859 77.808 102.664 78.064C101.555 78.32 100.915 78.448 100.744 78.448C99.6347 78.6187 98.6107 78.7893 97.672 78.96C96.7333 79.1307 95.88 79.2587 95.112 79.344C94.856 79.4293 94.6 79.2587 94.344 78.832C94.1733 78.4053 94.088 77.936 94.088 77.424C94.088 76.912 94.1733 76.4427 94.344 76.016C94.6 75.504 94.8133 75.1627 94.984 74.992C94.984 74.9067 95.0693 74.864 95.24 74.864H95.368L98.696 74.48C99.3787 74.3093 100.275 74.224 101.384 74.224C102.579 74.224 103.603 74.0533 104.456 73.712L109.576 73.456C110.6 73.3707 111.795 73.328 113.16 73.328C114.525 73.2427 115.677 73.2 116.616 73.2C117.043 73.2 117.213 73.2427 117.128 73.328C117.043 73.4133 117.171 73.456 117.512 73.456C118.024 73.456 118.365 73.4133 118.536 73.328C118.707 73.2427 119.091 73.2 119.688 73.2H120.84L121.096 72.816C121.523 72.1333 121.992 71.6213 122.504 71.28C123.016 70.9387 123.741 70.8107 124.68 70.896C125.619 70.896 126.301 71.28 126.728 72.048C126.813 72.1333 126.813 72.2613 126.728 72.432C126.728 72.5173 126.771 72.6027 126.856 72.688C126.856 72.7733 126.941 73.072 127.112 73.584C127.283 73.584 127.453 73.6267 127.624 73.712C127.88 73.712 128.051 73.712 128.136 73.712C128.307 73.7973 128.349 73.8827 128.264 73.968C128.179 74.0533 128.179 74.1387 128.264 74.224C128.52 74.3093 128.691 74.3093 128.776 74.224C128.947 74.0533 129.16 73.968 129.416 73.968C129.928 73.968 130.269 74.0533 130.44 74.224L131.976 74.608C132.573 74.864 132.872 75.248 132.872 75.76C132.872 76.1867 132.573 76.3147 131.976 76.144L130.952 75.76L129.672 75.632C129.331 75.5467 128.904 75.504 128.392 75.504C127.88 75.4187 127.368 75.376 126.856 75.376L126.216 77.296C125.789 78.576 125.448 79.9413 125.192 81.392C125.021 82.8427 124.168 83.952 122.632 84.72C122.547 85.0613 122.248 85.8293 121.736 87.024C121.309 88.1333 120.883 89.2427 120.456 90.352C120.029 91.376 119.731 91.9733 119.56 92.144C119.304 92.4853 119.048 92.8267 118.792 93.168C118.621 93.424 118.493 93.7653 118.408 94.192C118.323 95.0453 118.024 96.1973 117.512 97.648C117 99.0133 116.445 100.421 115.848 101.872C115.251 103.323 114.739 104.475 114.312 105.328C113.885 105.669 113.501 105.925 113.16 106.096C112.904 106.267 113.032 106.651 113.544 107.248C113.288 107.845 113.032 108.144 112.776 108.144C112.52 108.059 112.179 107.973 111.752 107.888C111.923 108.229 112.051 108.485 112.136 108.656C112.307 108.741 112.435 108.997 112.52 109.424C111.923 110.875 111.197 112.624 110.344 114.672C109.576 116.72 108.723 118.341 107.784 119.536C107.187 119.792 106.717 120.048 106.376 120.304C106.12 120.56 106.163 121.072 106.504 121.84C106.163 122.352 105.992 122.779 105.992 123.12L105.096 124.528C104.755 124.784 104.413 125.083 104.072 125.424C103.816 125.68 103.688 126.064 103.688 126.576L102.92 127.728C102.493 127.899 102.109 128.112 101.768 128.368C101.427 128.624 101.256 129.051 101.256 129.648C98.696 132.549 95.88 134.384 92.808 135.152L93.832 135.92C94.0027 135.92 94.344 136.091 94.856 136.432C95.4533 136.773 95.7947 137.029 95.88 137.2C96.904 137.968 97.7147 138.48 98.312 138.736C98.9947 138.992 99.6347 139.12 100.232 139.12C100.915 139.12 101.896 138.992 103.176 138.736H103.816C104.413 138.736 104.712 138.864 104.712 139.12C104.797 139.376 104.669 139.675 104.328 140.016C104.243 140.101 104.072 140.229 103.816 140.4C103.645 140.656 103.517 140.784 103.432 140.784C103.176 140.784 102.92 140.827 102.664 140.912C102.408 140.997 102.109 141.04 101.768 141.04ZM88.072 133.232L87.688 132.976C87.432 132.464 86.92 131.995 86.152 131.568C85.4693 131.141 84.8293 130.629 84.232 130.032C83.6347 129.435 83.08 128.837 82.568 128.24C82.1413 127.557 81.7147 127.003 81.288 126.576C81.1173 126.32 80.776 125.893 80.264 125.296C79.8373 124.613 79.368 123.973 78.856 123.376C78.5147 123.035 78.3013 122.651 78.216 122.224C78.216 121.797 78.1307 121.541 77.96 121.456C77.6187 121.029 77.2773 120.645 76.936 120.304C76.5947 119.877 76.2533 119.365 75.912 118.768C75.5707 118.085 75.1867 117.317 74.76 116.464C74.3333 115.611 73.7787 114.8 73.096 114.032L70.792 111.216C71.9867 115.739 73.7787 119.749 76.168 123.248C78.5573 126.747 81.0747 129.349 83.72 131.056C84.488 131.568 85.2133 132.037 85.896 132.464C86.664 132.805 87.3893 133.061 88.072 133.232Z" fill="black"/>
</svg>
